<svg width="16" height="16" viewBox="0 0 16 16" fill="none" xmlns="http://www.w3.org/2000/svg">
<path d="M11.6987 1.00291L9.77991 1C7.62416 1 6.23102 2.35233 6.23102 4.44542V6.03399H4.30172C4.135 6.03399 4 6.16187 4 6.3196V8.62126C4 8.77899 4.13516 8.90672 4.30172 8.90672H6.23102V14.7145C6.23102 14.8723 6.36603 15 6.53274 15H9.04993C9.21665 15 9.35165 14.8721 9.35165 14.7145V8.90672H11.6075C11.7742 8.90672 11.9092 8.77899 11.9092 8.62126L11.9101 6.3196C11.9101 6.24386 11.8782 6.17133 11.8217 6.11773C11.7652 6.06414 11.6883 6.03399 11.6082 6.03399H9.35165V4.68734C9.35165 4.04008 9.51467 3.71151 10.4058 3.71151L11.6984 3.71107C11.865 3.71107 12 3.58319 12 3.4256V1.28838C12 1.13094 11.8652 1.0032 11.6987 1.00291Z" fill="#FFFFFF"/>
</svg>
